{"accessors" : [{"bufferView" : 0, "byteOffset" : 0, "componentType" : 5123, "count" : 864, "type" : "SCALAR", "max" : [863], "min" : [0]}, {"bufferView" : 1, "byteOffset" : 0, "componentType" : 5126, "count" : 864, "type" : "VEC3", "max" : [3.1611454486846924, 0.027500007301568985, 3.1611440181732178], "min" : [-3.161144495010376, -0.027500007301568985, -3.161144971847534], "name" : "POSITION"}, {"bufferView" : 1, "byteOffset" : 12, "componentType" : 5126, "count" : 864, "type" : "VEC3", "max" : [1.0000044107437134, 1.0000044107437134, 1.0000044107437134], "min" : [-1.0000044107437134, -1.0000044107437134, -1.0000044107437134], "name" : "NORMAL"}, {"bufferView" : 1, "byteOffset" : 24, "componentType" : 5126, "count" : 864, "type" : "VEC2", "max" : [1.0000003576278687, -0], "min" : [0, -1], "name" : "TEXCOORD_0"}], "asset" : {"generator" : "Aspose.3D 21.8.1", "version" : "2.0"}, "buffers" : [{"uri" : "data:application/octet-stream;base64,", "byteLength" : 29384}], "bufferViews" : [{"buffer" : 0, "byteOffset" : 0, "byteLength" : 1728, "target" : 34963}, {"buffer" : 0, "byteOffset" : 1732, "byteLength" : 27648, "byteStride" : 32, "target" : 34962}], "materials" : [{"name" : "", "pbrMetallicRoughness" : {"baseColorFactor" : [0.5070000290870667, 0.4432918131351471, 0, 0.7264972925186157], "metallicFactor" : 0, "roughnessFactor" : 0}, "emissiveFactor" : [0, 0, 0], "alphaMode" : "BLEND", "doubleSided" : false}], "meshes" : [{"primitives" : [{"attributes" : {"POSITION" : 1, "NORMAL" : 2, "TEXCOORD_0" : 3}, "indices" : 0, "material" : 0, "mode" : 4}], "name" : "Geometry"}], "nodes" : [{"matrix" : [1, 0, 0, 0, 0, 1, 0, 0, 0, 0, 1, 0, -5.651177676459282, 0.09552289780950438, 7.16716969363136, 1], "mesh" : 0, "name" : "Model"}, {"children" : [0], "name" : "Model"}], "scene" : 0, "scenes" : [{"nodes" : [1]}]}