{"accessors" : [{"bufferView" : 0, "byteOffset" : 0, "componentType" : 5123, "count" : 1080, "type" : "SCALAR", "max" : [1079], "min" : [0]}, {"bufferView" : 1, "byteOffset" : 0, "componentType" : 5126, "count" : 1080, "type" : "VEC3", "max" : [23.465822219848633, 10.29022216796875, 17.727458953857422], "min" : [9.649420738220215, -0.05138111114501953, 2.5344371795654297], "name" : "POSITION"}, {"bufferView" : 1, "byteOffset" : 12, "componentType" : 5126, "count" : 1080, "type" : "VEC3", "max" : [0.9209715723991394, 0.9844709634780884, 0.8914311528205872], "min" : [-0.9217105507850647, -1.0000042915344238, -0.8729101419448853], "name" : "NORMAL"}, {"bufferView" : 1, "byteOffset" : 24, "componentType" : 5126, "count" : 1080, "type" : "VEC2", "max" : [0.4821428060531616, -0.3125], "min" : [0.419642835855484, -0.6884398460388184], "name" : "TEXCOORD_0"}], "asset" : {"generator" : "Aspose.3D 21.8.1", "version" : "2.0"}, "buffers" : [{"uri" : "data:application/octet-stream;base64,", "byteLength" : 36728}], "bufferViews" : [{"buffer" : 0, "byteOffset" : 0, "byteLength" : 2160, "target" : 34963}, {"buffer" : 0, "byteOffset" : 2164, "byteLength" : 34560, "byteStride" : 32, "target" : 34962}], "materials" : [{"name" : "", "pbrMetallicRoughness" : {"baseColorFactor" : [0, 1, 0, 0.40170902013778687], "metallicFactor" : 0, "roughnessFactor" : 0}, "emissiveFactor" : [0, 0, 0], "alphaMode" : "BLEND", "doubleSided" : false}], "meshes" : [{"primitives" : [{"attributes" : {"POSITION" : 1, "NORMAL" : 2, "TEXCOORD_0" : 3}, "indices" : 0, "material" : 0, "mode" : 4}], "name" : "Geometry"}], "nodes" : [{"mesh" : 0, "name" : "Model"}, {"children" : [0], "matrix" : [1, 0, 0, 0, 0, 1, 0, 0, 0, 0, 1, 0, 0, 0, -14.904969249972225, 1], "name" : "Model"}], "scene" : 0, "scenes" : [{"nodes" : [1]}]}