{"accessors" : [{"bufferView" : 0, "byteOffset" : 0, "componentType" : 5123, "count" : 492, "type" : "SCALAR", "max" : [491], "min" : [0]}, {"bufferView" : 1, "byteOffset" : 0, "componentType" : 5126, "count" : 492, "type" : "VEC3", "max" : [-5.0015058517456055, 3.9627904891967773, 11.814398765563965], "min" : [-6.660851001739502, -0.09118449687957764, 10.233860969543457], "name" : "POSITION"}, {"bufferView" : 1, "byteOffset" : 12, "componentType" : 5126, "count" : 492, "type" : "VEC3", "max" : [1.0000044107437134, 1.0000044107437134, 0.9948047995567322], "min" : [-1.0000044107437134, -1.0000042915344238, -1.0000044107437134], "name" : "NORMAL"}, {"bufferView" : 1, "byteOffset" : 24, "componentType" : 5126, "count" : 492, "type" : "VEC2", "max" : [1, -0], "min" : [0, -1], "name" : "TEXCOORD_0"}], "asset" : {"generator" : "Aspose.3D 21.8.1", "version" : "2.0"}, "buffers" : [{"uri" : "data:application/octet-stream;base64,", "byteLength" : 16736}], "bufferViews" : [{"buffer" : 0, "byteOffset" : 0, "byteLength" : 984, "target" : 34963}, {"buffer" : 0, "byteOffset" : 988, "byteLength" : 15744, "byteStride" : 32, "target" : 34962}], "materials" : [{"name" : "", "pbrMetallicRoughness" : {"baseColorFactor" : [1, 0, 0, 0.18803691864013672], "metallicFactor" : 0, "roughnessFactor" : 0}, "emissiveFactor" : [0, 0, 0], "alphaMode" : "BLEND", "doubleSided" : false}], "meshes" : [{"primitives" : [{"attributes" : {"POSITION" : 1, "NORMAL" : 2, "TEXCOORD_0" : 3}, "indices" : 0, "material" : 0, "mode" : 4}], "name" : "Geometry"}], "nodes" : [{"mesh" : 0, "name" : "Model"}, {"children" : [0], "matrix" : [1, 0, 0, 0, 0, 1, 0, 0, 0, 0, 1, 0, 0, 0, -14.904969249972225, 1], "name" : "Model"}], "scene" : 0, "scenes" : [{"nodes" : [1]}]}