{"accessors" : [{"bufferView" : 0, "byteOffset" : 0, "componentType" : 5123, "count" : 984, "type" : "SCALAR", "max" : [983], "min" : [0]}, {"bufferView" : 1, "byteOffset" : 0, "componentType" : 5126, "count" : 984, "type" : "VEC3", "max" : [14.598653793334961, 3.114389419555664, 17.402009963989258], "min" : [8.94890308380127, 0.09078001976013184, 16.07151985168457], "name" : "POSITION"}, {"bufferView" : 1, "byteOffset" : 12, "componentType" : 5126, "count" : 984, "type" : "VEC3", "max" : [0.9305811524391174, 0.9844725728034973, 0.9994897246360779], "min" : [-0.9902265667915344, -1.0000042915344238, -0.9994894862174988], "name" : "NORMAL"}, {"bufferView" : 1, "byteOffset" : 24, "componentType" : 5126, "count" : 984, "type" : "VEC2", "max" : [0.4821428060531616, -0.3125], "min" : [0.419642835855484, -0.6884398460388184], "name" : "TEXCOORD_0"}], "asset" : {"generator" : "Aspose.3D 21.8.1", "version" : "2.0"}, "buffers" : [{"uri" : "data:application/octet-stream;base64,", "byteLength" : 33464}], "bufferViews" : [{"buffer" : 0, "byteOffset" : 0, "byteLength" : 1968, "target" : 34963}, {"buffer" : 0, "byteOffset" : 1972, "byteLength" : 31488, "byteStride" : 32, "target" : 34962}], "materials" : [{"name" : "", "pbrMetallicRoughness" : {"baseColorFactor" : [1, 1, 0, 0.40170902013778687], "metallicFactor" : 0, "roughnessFactor" : 0}, "emissiveFactor" : [0, 0, 0], "alphaMode" : "BLEND", "doubleSided" : false}], "meshes" : [{"primitives" : [{"attributes" : {"POSITION" : 1, "NORMAL" : 2, "TEXCOORD_0" : 3}, "indices" : 0, "material" : 0, "mode" : 4}], "name" : "Geometry"}], "nodes" : [{"mesh" : 0, "name" : "Model"}, {"children" : [0], "matrix" : [1, 0, 0, 0, 0, 1, 0, 0, 0, 0, 1, 0, 0, 0, -14.904969249972225, 1], "name" : "Model"}], "scene" : 0, "scenes" : [{"nodes" : [1]}]}