{"accessors" : [{"bufferView" : 0, "byteOffset" : 0, "componentType" : 5123, "count" : 984, "type" : "SCALAR", "max" : [983], "min" : [0]}, {"bufferView" : 1, "byteOffset" : 0, "componentType" : 5126, "count" : 984, "type" : "VEC3", "max" : [9.706422805786133, 10.28197956085205, 3.324589967727661], "min" : [-9.706422805786133, -0.05962419509887695, -0.031012773513793945], "name" : "POSITION"}, {"bufferView" : 1, "byteOffset" : 12, "componentType" : 5126, "count" : 984, "type" : "VEC3", "max" : [0.9672253727912903, 0.984467625617981, 0.9994823336601257], "min" : [-0.9672226309776306, -1.0000042915344238, -0.9994820952415466], "name" : "NORMAL"}, {"bufferView" : 1, "byteOffset" : 24, "componentType" : 5126, "count" : 984, "type" : "VEC2", "max" : [0.4821428060531616, -0.3125], "min" : [0.419642835855484, -0.6884398460388184], "name" : "TEXCOORD_0"}, {"bufferView" : 0, "byteOffset" : 1968, "componentType" : 5123, "count" : 984, "type" : "SCALAR", "max" : [983], "min" : [0]}, {"bufferView" : 2, "byteOffset" : 0, "componentType" : 5126, "count" : 984, "type" : "VEC3", "max" : [-9.649420738220215, 10.29022216796875, 17.727458953857422], "min" : [-23.465822219848633, -0.05138111114501953, 2.5344371795654297], "name" : "POSITION"}, {"bufferView" : 2, "byteOffset" : 12, "componentType" : 5126, "count" : 984, "type" : "VEC3", "max" : [0.9217106699943542, 0.9844698905944824, 0.8914265632629395], "min" : [-0.9209688901901245, -1.0000042915344238, -0.8729089498519897], "name" : "NORMAL"}, {"bufferView" : 2, "byteOffset" : 24, "componentType" : 5126, "count" : 984, "type" : "VEC2", "max" : [0.4821428060531616, -0.3125], "min" : [0.419642835855484, -0.6884398460388184], "name" : "TEXCOORD_0"}, {"bufferView" : 0, "byteOffset" : 3936, "componentType" : 5123, "count" : 1080, "type" : "SCALAR", "max" : [1079], "min" : [0]}, {"bufferView" : 3, "byteOffset" : 0, "componentType" : 5126, "count" : 1080, "type" : "VEC3", "max" : [23.465822219848633, 10.29022216796875, 17.727458953857422], "min" : [9.649420738220215, -0.05138111114501953, 2.5344371795654297], "name" : "POSITION"}, {"bufferView" : 3, "byteOffset" : 12, "componentType" : 5126, "count" : 1080, "type" : "VEC3", "max" : [0.9209715723991394, 0.9844709634780884, 0.8914311528205872], "min" : [-0.9217106103897095, -1.0000042915344238, -0.8729101419448853], "name" : "NORMAL"}, {"bufferView" : 3, "byteOffset" : 24, "componentType" : 5126, "count" : 1080, "type" : "VEC2", "max" : [0.4821428060531616, -0.3125], "min" : [0.419642835855484, -0.6884398460388184], "name" : "TEXCOORD_0"}, {"bufferView" : 0, "byteOffset" : 6096, "componentType" : 5123, "count" : 984, "type" : "SCALAR", "max" : [983], "min" : [0]}, {"bufferView" : 4, "byteOffset" : 0, "componentType" : 5126, "count" : 984, "type" : "VEC3", "max" : [-8.948904037475586, 3.1143898963928223, 17.402009963989258], "min" : [-14.598651885986328, 0.09078001976013184, 16.07151985168457], "name" : "POSITION"}, {"bufferView" : 4, "byteOffset" : 12, "componentType" : 5126, "count" : 984, "type" : "VEC3", "max" : [0.9902240037918091, 0.9844713807106018, 0.9994896650314331], "min" : [-0.9305786490440369, -1.0000042915344238, -0.9994895458221436], "name" : "NORMAL"}, {"bufferView" : 4, "byteOffset" : 24, "componentType" : 5126, "count" : 984, "type" : "VEC2", "max" : [0.4821428060531616, -0.3125], "min" : [0.419642835855484, -0.6884398460388184], "name" : "TEXCOORD_0"}, {"bufferView" : 0, "byteOffset" : 8064, "componentType" : 5123, "count" : 984, "type" : "SCALAR", "max" : [983], "min" : [0]}, {"bufferView" : 5, "byteOffset" : 0, "componentType" : 5126, "count" : 984, "type" : "VEC3", "max" : [14.598653793334961, 3.114389419555664, 17.402009963989258], "min" : [8.94890308380127, 0.09078001976013184, 16.07151985168457], "name" : "POSITION"}, {"bufferView" : 5, "byteOffset" : 12, "componentType" : 5126, "count" : 984, "type" : "VEC3", "max" : [0.9305811524391174, 0.9844725728034973, 0.9994897246360779], "min" : [-0.9902265667915344, -1.0000042915344238, -0.9994894862174988], "name" : "NORMAL"}, {"bufferView" : 5, "byteOffset" : 24, "componentType" : 5126, "count" : 984, "type" : "VEC2", "max" : [0.4821428060531616, -0.3125], "min" : [0.419642835855484, -0.6884398460388184], "name" : "TEXCOORD_0"}, {"bufferView" : 0, "byteOffset" : 10032, "componentType" : 5123, "count" : 984, "type" : "SCALAR", "max" : [983], "min" : [0]}, {"bufferView" : 6, "byteOffset" : 0, "componentType" : 5126, "count" : 984, "type" : "VEC3", "max" : [3.2277698516845703, 3.0808639526367188, 17.479433059692383], "min" : [-3.2277698516845703, 0.06111561506986618, 16.499595642089844], "name" : "POSITION"}, {"bufferView" : 6, "byteOffset" : 12, "componentType" : 5126, "count" : 984, "type" : "VEC3", "max" : [0.9580926895141602, 0.9848262071609497, 0.9994823336601257], "min" : [-0.9580919742584229, -1.0000039339065552, -0.9994820952415466], "name" : "NORMAL"}, {"bufferView" : 6, "byteOffset" : 24, "componentType" : 5126, "count" : 984, "type" : "VEC2", "max" : [0.4821428060531616, -0.3125], "min" : [0.419642835855484, -0.6884398460388184], "name" : "TEXCOORD_0"}, {"bufferView" : 0, "byteOffset" : 12000, "componentType" : 5123, "count" : 492, "type" : "SCALAR", "max" : [491], "min" : [0]}, {"bufferView" : 7, "byteOffset" : 0, "componentType" : 5126, "count" : 492, "type" : "VEC3", "max" : [7.791280746459961, 3.9627904891967773, 12.690947532653809], "min" : [6.131936073303223, -0.09118437767028809, 11.1104097366333], "name" : "POSITION"}, {"bufferView" : 7, "byteOffset" : 12, "componentType" : 5126, "count" : 492, "type" : "VEC3", "max" : [1.0000044107437134, 1.0000044107437134, 0.9948047995567322], "min" : [-1.0000044107437134, -1.0000042915344238, -1.0000044107437134], "name" : "NORMAL"}, {"bufferView" : 7, "byteOffset" : 24, "componentType" : 5126, "count" : 492, "type" : "VEC2", "max" : [1, -0], "min" : [0, -1], "name" : "TEXCOORD_0"}, {"bufferView" : 0, "byteOffset" : 12984, "componentType" : 5123, "count" : 492, "type" : "SCALAR", "max" : [491], "min" : [0]}, {"bufferView" : 8, "byteOffset" : 0, "componentType" : 5126, "count" : 492, "type" : "VEC3", "max" : [-5.0015058517456055, 3.9627904891967773, 11.814398765563965], "min" : [-6.660851001739502, -0.09118449687957764, 10.233860969543457], "name" : "POSITION"}, {"bufferView" : 8, "byteOffset" : 12, "componentType" : 5126, "count" : 492, "type" : "VEC3", "max" : [1.0000044107437134, 1.0000044107437134, 0.9948047995567322], "min" : [-1.0000044107437134, -1.0000042915344238, -1.0000044107437134], "name" : "NORMAL"}, {"bufferView" : 8, "byteOffset" : 24, "componentType" : 5126, "count" : 492, "type" : "VEC2", "max" : [1, -0], "min" : [0, -1], "name" : "TEXCOORD_0"}, {"bufferView" : 0, "byteOffset" : 13968, "componentType" : 5123, "count" : 492, "type" : "SCALAR", "max" : [491], "min" : [0]}, {"bufferView" : 9, "byteOffset" : 0, "componentType" : 5126, "count" : 492, "type" : "VEC3", "max" : [-5.0015058517456055, 3.9627904891967773, 22.746776580810547], "min" : [-6.660851001739502, -0.09118449687957764, 21.166236877441406], "name" : "POSITION"}, {"bufferView" : 9, "byteOffset" : 12, "componentType" : 5126, "count" : 492, "type" : "VEC3", "max" : [1.0000044107437134, 1.0000044107437134, 0.9948047995567322], "min" : [-1.0000044107437134, -1.0000042915344238, -1.0000044107437134], "name" : "NORMAL"}, {"bufferView" : 9, "byteOffset" : 24, "componentType" : 5126, "count" : 492, "type" : "VEC2", "max" : [1, -0], "min" : [0, -1], "name" : "TEXCOORD_0"}, {"bufferView" : 0, "byteOffset" : 14952, "componentType" : 5123, "count" : 492, "type" : "SCALAR", "max" : [491], "min" : [0]}, {"bufferView" : 10, "byteOffset" : 0, "componentType" : 5126, "count" : 492, "type" : "VEC3", "max" : [7.791280746459961, 3.9627904891967773, 23.62332534790039], "min" : [6.1319355964660645, -0.09118449687957764, 22.04278564453125], "name" : "POSITION"}, {"bufferView" : 10, "byteOffset" : 12, "componentType" : 5126, "count" : 492, "type" : "VEC3", "max" : [1.0000044107437134, 1.0000044107437134, 0.9948047995567322], "min" : [-1.0000044107437134, -1.0000042915344238, -1.0000044107437134], "name" : "NORMAL"}, {"bufferView" : 10, "byteOffset" : 24, "componentType" : 5126, "count" : 492, "type" : "VEC2", "max" : [1, -0], "min" : [0, -1], "name" : "TEXCOORD_0"}], "asset" : {"generator" : "Aspose.3D 21.8.1", "version" : "2.0"}, "buffers" : [{"uri" : "data:application/octet-stream;base64,", "byteLength" : 270956}], "bufferViews" : [{"buffer" : 0, "byteOffset" : 0, "byteLength" : 15936, "target" : 34963}, {"buffer" : 0, "byteOffset" : 15940, "byteLength" : 31488, "byteStride" : 32, "target" : 34962}, {"buffer" : 0, "byteOffset" : 47432, "byteLength" : 31488, "byteStride" : 32, "target" : 34962}, {"buffer" : 0, "byteOffset" : 78924, "byteLength" : 34560, "byteStride" : 32, "target" : 34962}, {"buffer" : 0, "byteOffset" : 113488, "byteLength" : 31488, "byteStride" : 32, "target" : 34962}, {"buffer" : 0, "byteOffset" : 144980, "byteLength" : 31488, "byteStride" : 32, "target" : 34962}, {"buffer" : 0, "byteOffset" : 176472, "byteLength" : 31488, "byteStride" : 32, "target" : 34962}, {"buffer" : 0, "byteOffset" : 207964, "byteLength" : 15744, "byteStride" : 32, "target" : 34962}, {"buffer" : 0, "byteOffset" : 223712, "byteLength" : 15744, "byteStride" : 32, "target" : 34962}, {"buffer" : 0, "byteOffset" : 239460, "byteLength" : 15744, "byteStride" : 32, "target" : 34962}, {"buffer" : 0, "byteOffset" : 255208, "byteLength" : 15744, "byteStride" : 32, "target" : 34962}], "materials" : [{"name" : "", "pbrMetallicRoughness" : {"baseColorFactor" : [0, 1, 0, 0.40170902013778687], "metallicFactor" : 0, "roughnessFactor" : 0}, "emissiveFactor" : [0, 0, 0], "alphaMode" : "BLEND", "doubleSided" : false}, {"name" : "", "pbrMetallicRoughness" : {"baseColorFactor" : [0, 1, 0, 0.40170902013778687], "metallicFactor" : 0, "roughnessFactor" : 0}, "emissiveFactor" : [0, 0, 0], "alphaMode" : "BLEND", "doubleSided" : false}, {"name" : "", "pbrMetallicRoughness" : {"baseColorFactor" : [0, 1, 0, 0.40170902013778687], "metallicFactor" : 0, "roughnessFactor" : 0}, "emissiveFactor" : [0, 0, 0], "alphaMode" : "BLEND", "doubleSided" : false}, {"name" : "", "pbrMetallicRoughness" : {"baseColorFactor" : [1, 1, 0, 0.40170902013778687], "metallicFactor" : 0, "roughnessFactor" : 0}, "emissiveFactor" : [0, 0, 0], "alphaMode" : "BLEND", "doubleSided" : false}, {"name" : "", "pbrMetallicRoughness" : {"baseColorFactor" : [1, 1, 0, 0.40170902013778687], "metallicFactor" : 0, "roughnessFactor" : 0}, "emissiveFactor" : [0, 0, 0], "alphaMode" : "BLEND", "doubleSided" : false}, {"name" : "", "pbrMetallicRoughness" : {"baseColorFactor" : [1, 1, 0, 0.40170902013778687], "metallicFactor" : 0, "roughnessFactor" : 0}, "emissiveFactor" : [0, 0, 0], "alphaMode" : "BLEND", "doubleSided" : false}, {"name" : "", "pbrMetallicRoughness" : {"baseColorFactor" : [1, 0, 0, 0.18803691864013672], "metallicFactor" : 0, "roughnessFactor" : 0}, "emissiveFactor" : [0, 0, 0], "alphaMode" : "BLEND", "doubleSided" : false}, {"name" : "", "pbrMetallicRoughness" : {"baseColorFactor" : [1, 0, 0, 0.18803691864013672], "metallicFactor" : 0, "roughnessFactor" : 0}, "emissiveFactor" : [0, 0, 0], "alphaMode" : "BLEND", "doubleSided" : false}, {"name" : "", "pbrMetallicRoughness" : {"baseColorFactor" : [1, 0, 0, 0.18803691864013672], "metallicFactor" : 0, "roughnessFactor" : 0}, "emissiveFactor" : [0, 0, 0], "alphaMode" : "BLEND", "doubleSided" : false}, {"name" : "", "pbrMetallicRoughness" : {"baseColorFactor" : [1, 0, 0, 0.18803691864013672], "metallicFactor" : 0, "roughnessFactor" : 0}, "emissiveFactor" : [0, 0, 0], "alphaMode" : "BLEND", "doubleSided" : false}], "meshes" : [{"primitives" : [{"attributes" : {"POSITION" : 1, "NORMAL" : 2, "TEXCOORD_0" : 3}, "indices" : 0, "material" : 0, "mode" : 4}], "name" : "Geometry"}, {"primitives" : [{"attributes" : {"POSITION" : 5, "NORMAL" : 6, "TEXCOORD_0" : 7}, "indices" : 4, "material" : 1, "mode" : 4}], "name" : "Geometry"}, {"primitives" : [{"attributes" : {"POSITION" : 9, "NORMAL" : 10, "TEXCOORD_0" : 11}, "indices" : 8, "material" : 2, "mode" : 4}], "name" : "Geometry"}, {"primitives" : [{"attributes" : {"POSITION" : 13, "NORMAL" : 14, "TEXCOORD_0" : 15}, "indices" : 12, "material" : 3, "mode" : 4}], "name" : "Geometry"}, {"primitives" : [{"attributes" : {"POSITION" : 17, "NORMAL" : 18, "TEXCOORD_0" : 19}, "indices" : 16, "material" : 4, "mode" : 4}], "name" : "Geometry"}, {"primitives" : [{"attributes" : {"POSITION" : 21, "NORMAL" : 22, "TEXCOORD_0" : 23}, "indices" : 20, "material" : 5, "mode" : 4}], "name" : "Geometry"}, {"primitives" : [{"attributes" : {"POSITION" : 25, "NORMAL" : 26, "TEXCOORD_0" : 27}, "indices" : 24, "material" : 6, "mode" : 4}], "name" : "Geometry"}, {"primitives" : [{"attributes" : {"POSITION" : 29, "NORMAL" : 30, "TEXCOORD_0" : 31}, "indices" : 28, "material" : 7, "mode" : 4}], "name" : "Geometry"}, {"primitives" : [{"attributes" : {"POSITION" : 33, "NORMAL" : 34, "TEXCOORD_0" : 35}, "indices" : 32, "material" : 8, "mode" : 4}], "name" : "Geometry"}, {"primitives" : [{"attributes" : {"POSITION" : 37, "NORMAL" : 38, "TEXCOORD_0" : 39}, "indices" : 36, "material" : 9, "mode" : 4}], "name" : "Geometry"}], "nodes" : [{"mesh" : 0, "name" : "Model"}, {"mesh" : 1, "name" : "Model"}, {"mesh" : 2, "name" : "Model"}, {"mesh" : 3, "name" : "Model"}, {"mesh" : 4, "name" : "Model"}, {"mesh" : 5, "name" : "Model"}, {"mesh" : 6, "name" : "Model"}, {"mesh" : 7, "name" : "Model"}, {"mesh" : 8, "name" : "Model"}, {"mesh" : 9, "name" : "Model"}, {"children" : [0, 1, 2, 3, 4, 5, 6, 7, 8, 9], "matrix" : [1, 0, 0, 0, 0, 1, 0, 0, 0, 0, 1, 0, 0, 0, -14.904969249972225, 1], "name" : "Model"}], "scene" : 0, "scenes" : [{"nodes" : [10]}]}