{"accessors" : [{"bufferView" : 0, "byteOffset" : 0, "componentType" : 5123, "count" : 1758, "type" : "SCALAR", "max" : [1757], "min" : [0]}, {"bufferView" : 1, "byteOffset" : 0, "componentType" : 5126, "count" : 1758, "type" : "VEC3", "max" : [456.20233154296875, 39.0413818359375, 198.24685668945312], "min" : [-456.19268798828125, -38.3916015625, -201.31121826171875], "name" : "POSITION"}, {"bufferView" : 1, "byteOffset" : 12, "componentType" : 5126, "count" : 1758, "type" : "VEC3", "max" : [0.9472172856330872, 1.0000044107437134, 1.0000044107437134], "min" : [-0.9521225690841675, -0.9999721050262451, -1.0000044107437134], "name" : "NORMAL"}, {"bufferView" : 1, "byteOffset" : 24, "componentType" : 5126, "count" : 1758, "type" : "VEC2", "max" : [0.9999999403953552, 0.007531778886914253], "min" : [-8.525194772346367E-09, -0.9998062252998352], "name" : "TEXCOORD_0"}, {"bufferView" : 0, "byteOffset" : 3516, "componentType" : 5123, "count" : 246, "type" : "SCALAR", "max" : [245], "min" : [0]}, {"bufferView" : 2, "byteOffset" : 0, "componentType" : 5126, "count" : 246, "type" : "VEC3", "max" : [452.26483154296875, 38.391357421875, 194.30984497070312], "min" : [-452.2454833984375, -37.1292724609375, -197.37420654296875], "name" : "POSITION"}, {"bufferView" : 2, "byteOffset" : 12, "componentType" : 5126, "count" : 246, "type" : "VEC3", "max" : [0.30575472116470337, -0.9472066164016724, 2.4982062640788172E-08], "min" : [-0.3206372857093811, -1.0000044107437134, -3.1298969815907185E-07], "name" : "NORMAL"}, {"bufferView" : 2, "byteOffset" : 24, "componentType" : 5126, "count" : 246, "type" : "VEC2", "max" : [0.9999999403953552, 0.007531778886914253], "min" : [-8.525194772346367E-09, -0.9998062252998352], "name" : "TEXCOORD_0"}], "asset" : {"generator" : "Aspose.3D 21.8.1", "version" : "2.0"}, "buffers" : [{"uri" : "data:application/octet-stream;base64,", "byteLength" : 68148}], "bufferViews" : [{"buffer" : 0, "byteOffset" : 0, "byteLength" : 4008, "target" : 34963}, {"buffer" : 0, "byteOffset" : 4012, "byteLength" : 56256, "byteStride" : 32, "target" : 34962}, {"buffer" : 0, "byteOffset" : 60272, "byteLength" : 7872, "byteStride" : 32, "target" : 34962}], "images" : [{"uri" : "data:image/jpeg;base64,"}], "materials" : [{"name" : "", "pbrMetallicRoughness" : {"baseColorFactor" : [0, 0.16862745583057404, 0.3294117748737335, 1], "metallicFactor" : 0, "roughnessFactor" : 0}, "emissiveFactor" : [0, 0, 0], "alphaMode" : "OPAQUE", "doubleSided" : false}, {"name" : "", "pbrMetallicRoughness" : {"baseColorFactor" : [1, 1, 1, 1], "baseColorTexture" : {"index" : 0, "texCoord" : 0}, "metallicFactor" : 0, "roughnessFactor" : 0}, "emissiveFactor" : [0, 0, 0], "alphaMode" : "OPAQUE", "doubleSided" : false}], "meshes" : [{"primitives" : [{"attributes" : {"POSITION" : 1, "NORMAL" : 2, "TEXCOORD_0" : 3}, "indices" : 0, "material" : 0, "mode" : 4}], "name" : "Geometry"}, {"primitives" : [{"attributes" : {"POSITION" : 5, "NORMAL" : 6, "TEXCOORD_0" : 7}, "indices" : 4, "material" : 1, "mode" : 4}], "name" : "Geometry"}], "nodes" : [{"matrix" : [6.323327693939209, 0, 0, 0, 0, 1.774338995161654E-15, -7.990912437438965, 0, 0, 5.088047595024109, 1.1297735180768839E-15, 0, 31.446331520080566, 2169.4322314453125, -2568.5858520507813, 1], "mesh" : 0, "name" : "Model"}, {"matrix" : [6.323327693939209, 0, 0, 0, 0, 1.774338995161654E-15, -7.990912437438965, 0, 0, 5.088047595024109, 1.1297735180768839E-15, 0, 31.446331520080566, 2169.4322314453125, -2568.5858520507813, 1], "mesh" : 1, "name" : "Model"}], "samplers" : [{"magFilter" : 9729, "minFilter" : 9729, "wrapS" : 10497, "wrapT" : 10497}], "scene" : 0, "scenes" : [{"nodes" : [0, 1]}], "textures" : [{"sampler" : 0, "source" : 0}]}