{"accessors" : [{"bufferView" : 0, "byteOffset" : 0, "componentType" : 5123, "count" : 996, "type" : "SCALAR", "max" : [995], "min" : [0]}, {"bufferView" : 1, "byteOffset" : 0, "componentType" : 5126, "count" : 996, "type" : "VEC3", "max" : [471.993896484375, 10.6131591796875, 71.30838012695312], "min" : [-471.06976318359375, -85.30859375, 55.6385612487793], "name" : "POSITION"}, {"bufferView" : 1, "byteOffset" : 12, "componentType" : 5126, "count" : 996, "type" : "VEC3", "max" : [0.961185097694397, 1.0000044107437134, 1.0000044107437134], "min" : [-0.967018187046051, -1.0000044107437134, -1.0000044107437134], "name" : "NORMAL"}, {"bufferView" : 1, "byteOffset" : 24, "componentType" : 5126, "count" : 996, "type" : "VEC2", "max" : [1.9188756942749023, -0.46615761518478394], "min" : [-0.935065507888794, -2.0976579189300537], "name" : "TEXCOORD_0"}, {"bufferView" : 0, "byteOffset" : 1992, "componentType" : 5123, "count" : 1758, "type" : "SCALAR", "max" : [1757], "min" : [0]}, {"bufferView" : 2, "byteOffset" : 0, "componentType" : 5126, "count" : 1758, "type" : "VEC3", "max" : [471.9940185546875, 10.61328125, 236.7288818359375], "min" : [-471.06976318359375, -85.30859375, -123.95504760742188], "name" : "POSITION"}, {"bufferView" : 2, "byteOffset" : 12, "componentType" : 5126, "count" : 1758, "type" : "VEC3", "max" : [0.987260103225708, 1.0000044107437134, 1.0000044107437134], "min" : [-0.9903184175491333, -0.9999841451644897, -1.0000044107437134], "name" : "NORMAL"}, {"bufferView" : 2, "byteOffset" : 24, "componentType" : 5126, "count" : 1758, "type" : "VEC2", "max" : [6.888573169708252, 3.5138330459594727], "min" : [-5.789402008056641, -2.2549920082092285], "name" : "TEXCOORD_0"}, {"bufferView" : 0, "byteOffset" : 5508, "componentType" : 5123, "count" : 1044, "type" : "SCALAR", "max" : [1043], "min" : [0]}, {"bufferView" : 3, "byteOffset" : 0, "componentType" : 5126, "count" : 1044, "type" : "VEC3", "max" : [497.304443359375, 24.0147705078125, 130.0523223876953], "min" : [-496.2837219238281, -97.1732177734375, 37.805023193359375], "name" : "POSITION"}, {"bufferView" : 3, "byteOffset" : 12, "componentType" : 5126, "count" : 1044, "type" : "VEC3", "max" : [0.9568018913269043, 1.0000044107437134, 1.0000044107437134], "min" : [-0.9629514217376709, -1.0000044107437134, -1.0000044107437134], "name" : "NORMAL"}, {"bufferView" : 3, "byteOffset" : 24, "componentType" : 5126, "count" : 1044, "type" : "VEC2", "max" : [1.928365707397461, -0.42113542556762695], "min" : [-0.9454214572906494, -2.1257565021514893], "name" : "TEXCOORD_0"}, {"bufferView" : 0, "byteOffset" : 7596, "componentType" : 5123, "count" : 246, "type" : "SCALAR", "max" : [245], "min" : [0]}, {"bufferView" : 4, "byteOffset" : 0, "componentType" : 5126, "count" : 246, "type" : "VEC3", "max" : [453.267578125, -3.1900634765625, 228.99322509765625], "min" : [-452.43511962890625, -62.5576171875, -116.95599365234375], "name" : "POSITION"}, {"bufferView" : 4, "byteOffset" : 12, "componentType" : 5126, "count" : 246, "type" : "VEC3", "max" : [0.23477883636951447, -0.9692971706390381, -8.87586040221322E-08], "min" : [-0.2459098845720291, -1.0000044107437134, -8.817154935059079E-07], "name" : "NORMAL"}, {"bufferView" : 4, "byteOffset" : 24, "componentType" : 5126, "count" : 246, "type" : "VEC2", "max" : [0.9999998807907104, -0], "min" : [2.9802322387695312E-08, -1], "name" : "TEXCOORD_0"}], "asset" : {"generator" : "Aspose.3D 21.8.1", "version" : "2.0"}, "buffers" : [{"uri" : "data:application/octet-stream;base64,", "byteLength" : 137516}], "bufferViews" : [{"buffer" : 0, "byteOffset" : 0, "byteLength" : 8088, "target" : 34963}, {"buffer" : 0, "byteOffset" : 8092, "byteLength" : 31872, "byteStride" : 32, "target" : 34962}, {"buffer" : 0, "byteOffset" : 39968, "byteLength" : 56256, "byteStride" : 32, "target" : 34962}, {"buffer" : 0, "byteOffset" : 96228, "byteLength" : 33408, "byteStride" : 32, "target" : 34962}, {"buffer" : 0, "byteOffset" : 129640, "byteLength" : 7872, "byteStride" : 32, "target" : 34962}], "images" : [{"uri" : "data:image/jpeg;base64,"}], "materials" : [{"name" : "", "pbrMetallicRoughness" : {"baseColorFactor" : [1, 0.6901960968971252, 0.15294118225574493, 1], "metallicFactor" : 0, "roughnessFactor" : 0}, "emissiveFactor" : [0, 0, 0], "alphaMode" : "OPAQUE", "doubleSided" : false}, {"name" : "", "pbrMetallicRoughness" : {"baseColorFactor" : [0, 0.16862745583057404, 0.3294117748737335, 1], "metallicFactor" : 0, "roughnessFactor" : 0}, "emissiveFactor" : [0, 0, 0], "alphaMode" : "OPAQUE", "doubleSided" : false}, {"name" : "", "pbrMetallicRoughness" : {"baseColorFactor" : [0, 0.16862745583057404, 0.3294117748737335, 1], "metallicFactor" : 0, "roughnessFactor" : 0}, "emissiveFactor" : [0, 0, 0], "alphaMode" : "OPAQUE", "doubleSided" : false}, {"name" : "", "pbrMetallicRoughness" : {"baseColorFactor" : [1, 1, 1, 1], "baseColorTexture" : {"index" : 0, "texCoord" : 0}, "metallicFactor" : 0, "roughnessFactor" : 0}, "emissiveFactor" : [0.4745098352432251, 0.4745098352432251, 0.4745098352432251], "alphaMode" : "OPAQUE", "doubleSided" : false}], "meshes" : [{"primitives" : [{"attributes" : {"POSITION" : 1, "NORMAL" : 2, "TEXCOORD_0" : 3}, "indices" : 0, "material" : 0, "mode" : 4}], "name" : "Geometry"}, {"primitives" : [{"attributes" : {"POSITION" : 5, "NORMAL" : 6, "TEXCOORD_0" : 7}, "indices" : 4, "material" : 1, "mode" : 4}], "name" : "Geometry"}, {"primitives" : [{"attributes" : {"POSITION" : 9, "NORMAL" : 10, "TEXCOORD_0" : 11}, "indices" : 8, "material" : 2, "mode" : 4}], "name" : "Geometry"}, {"primitives" : [{"attributes" : {"POSITION" : 13, "NORMAL" : 14, "TEXCOORD_0" : 15}, "indices" : 12, "material" : 3, "mode" : 4}], "name" : "Geometry"}], "nodes" : [{"matrix" : [2.228835976999724, -3.2302368246588024E-16, 1.8702153542634532, 0, 2.090769284089014, 3.6111776742361602E-16, -2.491681928158905, 0, 0, 3.252660593986511, 3.6111786827347627E-16, 0, 3188.5005712890625, -178.4630603027344, -848.1660583496094, 1], "mesh" : 0, "name" : "Model"}, {"matrix" : [2.228835976999724, -3.2302368246588024E-16, 1.8702153542634532, 0, 2.090769284089014, 3.6111776742361602E-16, -2.491681928158905, 0, 0, 3.252660593986511, 3.6111786827347627E-16, 0, 3188.5005712890625, 756.7113305664062, -848.1657482910157, 1], "mesh" : 1, "name" : "Model"}, {"matrix" : [2.228835976999724, -3.2302368246588024E-16, 1.8702153542634532, 0, 2.090769284089014, 3.6111776742361602E-16, -2.491681928158905, 0, 0, 3.252660593986511, 3.6111786827347627E-16, 0, 3181.465651855469, -69.48808410644531, -839.6814599609376, 1], "mesh" : 2, "name" : "Model"}, {"matrix" : [2.228835976999724, -3.2302368246588024E-16, 1.8702153542634532, 0, 2.090769284089014, 3.6111776742361602E-16, -2.491681928158905, 0, 0, 3.252660593986511, 3.6111786827347627E-16, 0, 3146.5096459960937, 756.7113305664062, -799.646771850586, 1], "mesh" : 3, "name" : "Model"}], "samplers" : [{"magFilter" : 9729, "minFilter" : 9729, "wrapS" : 10497, "wrapT" : 10497}], "scene" : 0, "scenes" : [{"nodes" : [0, 1, 2, 3]}], "textures" : [{"sampler" : 0, "source" : 0}]}