{"accessors" : [{"bufferView" : 0, "byteOffset" : 0, "componentType" : 5123, "count" : 4896, "type" : "SCALAR", "max" : [4895], "min" : [0]}, {"bufferView" : 1, "byteOffset" : 0, "componentType" : 5126, "count" : 4896, "type" : "VEC3", "max" : [421.62109375, 421.62109375, 3], "min" : [-421.62109375, -421.62109375, -3], "name" : "POSITION"}, {"bufferView" : 1, "byteOffset" : 12, "componentType" : 5126, "count" : 4896, "type" : "VEC3", "max" : [1.0000044107437134, 1.0000044107437134, 1.0000044107437134], "min" : [-1.0000044107437134, -1.0000044107437134, -1.0000044107437134], "name" : "NORMAL"}, {"bufferView" : 1, "byteOffset" : 24, "componentType" : 5126, "count" : 4896, "type" : "VEC2", "max" : [1, -0], "min" : [0, -1], "name" : "TEXCOORD_0"}], "asset" : {"generator" : "Aspose.3D 21.8.1", "version" : "2.0"}, "buffers" : [{"uri" : "data:application/octet-stream;base64,", "byteLength" : 166472}], "bufferViews" : [{"buffer" : 0, "byteOffset" : 0, "byteLength" : 9792, "target" : 34963}, {"buffer" : 0, "byteOffset" : 9796, "byteLength" : 156672, "byteStride" : 32, "target" : 34962}], "materials" : [{"name" : "", "pbrMetallicRoughness" : {"baseColorFactor" : [1, 1, 1, 1], "metallicFactor" : 0, "roughnessFactor" : 0}, "emissiveFactor" : [0, 0, 0], "alphaMode" : "OPAQUE", "doubleSided" : false}], "meshes" : [{"primitives" : [{"attributes" : {"POSITION" : 1, "NORMAL" : 2, "TEXCOORD_0" : 3}, "indices" : 0, "material" : 0, "mode" : 4}], "name" : "Geometry"}], "nodes" : [{"matrix" : [2.058703730471876, 1.4918326517129966E-16, -1.7274574373434393, 0, -1.313260969842422, 0, -1.5650835726844001, 0, -1.491832819796097E-16, 2.6874470925331115, 0, 0, -3059.6585131835936, -2.7701409912109374, -762.0119372558594, 1], "mesh" : 0, "name" : "Model"}], "scene" : 0, "scenes" : [{"nodes" : [0]}]}