{"accessors" : [{"bufferView" : 0, "byteOffset" : 0, "componentType" : 5123, "count" : 108, "type" : "SCALAR", "max" : [107], "min" : [0]}, {"bufferView" : 1, "byteOffset" : 0, "componentType" : 5126, "count" : 108, "type" : "VEC3", "max" : [202.8755340576172, 7.0975341796875, 29.563920974731445], "min" : [-202.87551879882812, -7.0977783203125, -29.563922882080078], "name" : "POSITION"}, {"bufferView" : 1, "byteOffset" : 12, "componentType" : 5126, "count" : 108, "type" : "VEC3", "max" : [0.13599242269992828, -0.9907143115997314, -6.732444489898626E-06], "min" : [-0.13598938286304474, -1.0000044107437134, -1.060751765180612E-05], "name" : "NORMAL"}, {"bufferView" : 1, "byteOffset" : 24, "componentType" : 5126, "count" : 108, "type" : "VEC2", "max" : [1, -1.1920928955078125E-07], "min" : [0, -1], "name" : "TEXCOORD_0"}, {"bufferView" : 0, "byteOffset" : 216, "componentType" : 5123, "count" : 504, "type" : "SCALAR", "max" : [503], "min" : [0]}, {"bufferView" : 2, "byteOffset" : 0, "componentType" : 5126, "count" : 504, "type" : "VEC3", "max" : [-0.0004282020090613514, 685.3935546875, 16.72433090209961], "min" : [-295.0695495605469, 604.1173706054688, 0], "name" : "POSITION"}, {"bufferView" : 2, "byteOffset" : 12, "componentType" : 5126, "count" : 504, "type" : "VEC3", "max" : [1.0000044107437134, 0.9999425411224365, 1.0000044107437134], "min" : [-0.9025890827178955, -0.9999425411224365, -1.0000044107437134], "name" : "NORMAL"}, {"bufferView" : 2, "byteOffset" : 24, "componentType" : 5126, "count" : 504, "type" : "VEC2", "max" : [1, -0], "min" : [0, -1], "name" : "TEXCOORD_0"}, {"bufferView" : 0, "byteOffset" : 1224, "componentType" : 5123, "count" : 240, "type" : "SCALAR", "max" : [239], "min" : [0]}, {"bufferView" : 3, "byteOffset" : 0, "componentType" : 5126, "count" : 240, "type" : "VEC3", "max" : [136.58314514160156, 32.5579833984375, 150.2681121826172], "min" : [-136.58316040039062, -32.55804443359375, -150.2681121826172], "name" : "POSITION"}, {"bufferView" : 3, "byteOffset" : 12, "componentType" : 5126, "count" : 240, "type" : "VEC3", "max" : [0.3893280327320099, 0.9999518394470215, 0], "min" : [-0.38932621479034424, -0.9999517798423767, 0], "name" : "NORMAL"}, {"bufferView" : 3, "byteOffset" : 24, "componentType" : 5126, "count" : 240, "type" : "VEC2", "max" : [0.75, -0], "min" : [0, -0.9523809552192688], "name" : "TEXCOORD_0"}, {"bufferView" : 0, "byteOffset" : 1704, "componentType" : 5123, "count" : 252, "type" : "SCALAR", "max" : [251], "min" : [0]}, {"bufferView" : 4, "byteOffset" : 0, "componentType" : 5126, "count" : 252, "type" : "VEC3", "max" : [136.58314514160156, 32.5579833984375, 150.2681121826172], "min" : [-136.58316040039062, -32.55804443359375, -150.2681121826172], "name" : "POSITION"}, {"bufferView" : 4, "byteOffset" : 12, "componentType" : 5126, "count" : 252, "type" : "VEC3", "max" : [1.0000044107437134, 8.781748306319059E-07, 1.0000044107437134], "min" : [-0.9170647263526917, -0.39874932169914246, -1.0000044107437134], "name" : "NORMAL"}, {"bufferView" : 4, "byteOffset" : 24, "componentType" : 5126, "count" : 252, "type" : "VEC2", "max" : [1.7500321865081787, -0], "min" : [0, -0.9523809552192688], "name" : "TEXCOORD_0"}], "asset" : {"generator" : "Aspose.3D 21.8.1", "version" : "2.0"}, "buffers" : [{"uri" : "data:application/octet-stream;base64,", "byteLength" : 37556}], "bufferViews" : [{"buffer" : 0, "byteOffset" : 0, "byteLength" : 2208, "target" : 34963}, {"buffer" : 0, "byteOffset" : 2212, "byteLength" : 3456, "byteStride" : 32, "target" : 34962}, {"buffer" : 0, "byteOffset" : 5672, "byteLength" : 16128, "byteStride" : 32, "target" : 34962}, {"buffer" : 0, "byteOffset" : 21804, "byteLength" : 7680, "byteStride" : 32, "target" : 34962}, {"buffer" : 0, "byteOffset" : 29488, "byteLength" : 8064, "byteStride" : 32, "target" : 34962}], "images" : [{"uri" : "data:image/jpeg;base64,"}], "materials" : [{"name" : "", "pbrMetallicRoughness" : {"baseColorFactor" : [1, 1, 1, 1], "baseColorTexture" : {"index" : 0, "texCoord" : 0}, "metallicFactor" : 0, "roughnessFactor" : 0}, "emissiveFactor" : [0.658823549747467, 0.658823549747467, 0.658823549747467], "alphaMode" : "OPAQUE", "doubleSided" : false}, {"name" : "", "pbrMetallicRoughness" : {"baseColorFactor" : [1, 0.5215686559677124, 0, 1], "metallicFactor" : 0, "roughnessFactor" : 0}, "emissiveFactor" : [0, 0, 0], "alphaMode" : "OPAQUE", "doubleSided" : false}, {"name" : "", "pbrMetallicRoughness" : {"baseColorFactor" : [0.9215686917304993, 0.9686275124549866, 1, 0.07581692934036255], "metallicFactor" : 0, "roughnessFactor" : 0}, "emissiveFactor" : [0.007843137718737125, 0.007843137718737125, 0.007843137718737125], "alphaMode" : "BLEND", "doubleSided" : false}, {"name" : "", "pbrMetallicRoughness" : {"baseColorFactor" : [1, 1, 1, 0.16209137439727783], "metallicFactor" : 0, "roughnessFactor" : 0}, "emissiveFactor" : [0.05490196496248245, 0.05490196496248245, 0.05490196496248245], "alphaMode" : "BLEND", "doubleSided" : false}], "meshes" : [{"primitives" : [{"attributes" : {"POSITION" : 1, "NORMAL" : 2, "TEXCOORD_0" : 3}, "indices" : 0, "material" : 0, "mode" : 4}], "name" : "Geometry"}, {"primitives" : [{"attributes" : {"POSITION" : 5, "NORMAL" : 6, "TEXCOORD_0" : 7}, "indices" : 4, "material" : 1, "mode" : 4}], "name" : "Geometry"}, {"primitives" : [{"attributes" : {"POSITION" : 9, "NORMAL" : 10, "TEXCOORD_0" : 11}, "indices" : 8, "material" : 2, "mode" : 4}, {"attributes" : {"POSITION" : 13, "NORMAL" : 14, "TEXCOORD_0" : 15}, "indices" : 12, "material" : 3, "mode" : 4}], "name" : "Geometry"}], "nodes" : [{"matrix" : [-1.0789529628604742, 6.793256253405128E-15, 1.031069651292854, 0, -1.2888147065749778, -2.816769123600364E-07, -1.3486678077408198, 0, -1.1804214987355075E-06, 11.315354623794429, -1.2352408474986147E-06, 0, -1231.2074841308595, 422.9951498413086, 1148.4487371826172, 1], "mesh" : 0, "name" : "Model"}, {"matrix" : [2.1772052286132375, -1.4099832412739488E-16, -1.3081962362349093, 0, -1.3081962362349093, -5.639932965095795E-16, -2.177205228613238, 0, 2.8199664825478977E-16, 2.5400000000000005, -5.639932965095795E-16, 0, -64.01268188476563, 0, 2370.0863403320313, 1], "mesh" : 1, "name" : "Model"}, {"matrix" : [2.164827098623316, 0, -1.3285795546621044, 0, -1.3285795546621044, 2.8199664825478977E-16, -2.164827098623316, 0, 2.8199664825478977E-16, 2.54, 2.8199664825478977E-16, 0, -1225.4913989257814, 424.1608151245117, 1146.0931445312501, 1], "mesh" : 2, "name" : "Model"}], "samplers" : [{"magFilter" : 9729, "minFilter" : 9729, "wrapS" : 10497, "wrapT" : 10497}], "scene" : 0, "scenes" : [{"nodes" : [0, 1, 2]}], "textures" : [{"sampler" : 0, "source" : 0}]}